<svg width="32" height="32" viewBox="0 0 32 32" fill="none" xmlns="http://www.w3.org/2000/svg">
<path d="M29.3333 7.99992V23.9999C29.3333 24.7333 29.0724 25.3613 28.5506 25.8839C28.0288 26.4066 27.4008 26.6675 26.6666 26.6666H5.33329C4.59996 26.6666 3.9724 26.4057 3.45063 25.8839C2.92885 25.3621 2.66751 24.7341 2.66663 23.9999V7.99992C2.66663 7.26659 2.92796 6.63903 3.45063 6.11725C3.97329 5.59547 4.60085 5.33414 5.33329 5.33325H26.6666C27.4 5.33325 28.028 5.59459 28.5506 6.11725C29.0733 6.63992 29.3342 7.26747 29.3333 7.99992ZM5.33329 10.6666H26.6666V7.99992H5.33329V10.6666ZM5.33329 15.9999V23.9999H26.6666V15.9999H5.33329Z" fill="white"/>
</svg>
